<svg width="245" height="294" viewBox="0 0 245 294" fill="none" xmlns="http://www.w3.org/2000/svg">
<path d="M122 21C171.752 78.525 237 63.9 237 63.9C237 63.9 223.135 230.625 206.823 256.95C190.511 283.275 122 294 122 294V21Z" fill="#282952"/>
<path d="M122 21C72.2482 78.525 7 63.9 7 63.9C7 63.9 20.8652 230.625 37.1773 256.95C53.4894 283.275 122 294 122 294V21Z" fill="#3A3B65"/>
<path d="M69.4414 132.897C69.8369 133.908 70.0347 135.058 70.0347 136.347C70.0347 137.636 69.8296 138.808 69.4194 139.862C69.0239 140.917 68.4453 141.825 67.6836 142.587C66.2334 144.037 64.1021 145.055 61.2896 145.641L61.6851 144.916L70.3643 158.1L71.9023 158.781L75.0005 159.132V161H67.4639L57.5762 145.202L59.4219 145.993H53.5332V158.627L56.8291 159.132V161H46.0625V159.132L49.4683 158.627V130.238L46.0625 129.733V127.865H56.895C63.9116 127.865 68.0938 129.542 69.4414 132.897ZM53.5332 130.524V143.62H56.7852C61.5312 143.62 64.4023 142.235 65.3984 139.467C65.7061 138.632 65.8599 137.731 65.8599 136.764C65.8599 135.783 65.7207 134.904 65.4424 134.127C65.1641 133.351 64.6953 132.699 64.0361 132.172C62.6738 131.073 60.3667 130.524 57.1147 130.524H53.5332ZM80.5376 156.737C79.1167 155.258 78.0327 153.515 77.2856 151.508C76.5532 149.486 76.187 147.45 76.187 145.399C76.187 143.334 76.3921 141.51 76.8022 139.928C77.2124 138.346 77.7764 136.903 78.4941 135.6C79.2266 134.296 80.0981 133.131 81.1089 132.106C82.1343 131.081 83.2549 130.216 84.4707 129.513C86.9463 128.078 89.5977 127.36 92.4248 127.36C95.252 127.36 97.7056 127.777 99.7856 128.612C101.866 129.433 103.616 130.568 105.037 132.018C107.923 134.962 109.366 138.83 109.366 143.62C109.366 148.952 107.747 153.302 104.51 156.671C103.016 158.224 101.272 159.418 99.2803 160.253C97.3027 161.088 95.0835 161.505 92.6226 161.505C90.1763 161.505 87.9058 161.081 85.811 160.231C83.731 159.381 81.9731 158.217 80.5376 156.737ZM83.7676 134.062C82.6982 135.307 81.8706 136.757 81.2847 138.412C80.7134 140.067 80.4277 141.686 80.4277 143.268C80.4277 144.85 80.5449 146.271 80.7793 147.531C81.0137 148.791 81.3579 149.984 81.812 151.112C82.2808 152.226 82.8594 153.258 83.5479 154.21C84.251 155.163 85.064 155.983 85.9868 156.671C87.9497 158.136 90.2642 158.869 92.9302 158.869C96.5776 158.869 99.5439 157.631 101.829 155.155C104.07 152.724 105.191 149.552 105.191 145.641C105.191 141.334 104.217 137.753 102.269 134.896C100.042 131.63 96.79 129.997 92.5127 129.997C88.9824 129.997 86.0674 131.352 83.7676 134.062ZM112.31 127.865H124.241V129.733L120.44 130.238L128.438 144.85L135.293 130.238L131.668 129.733V127.865H141.863V129.733L138.479 130.15L129.822 147.531V158.627L133.646 159.132V161H121.978V159.132L125.735 158.627V147.553L115.32 130.238L112.31 129.733V127.865ZM162.737 159.132L165.77 158.627L162.298 150.08H149.114L145.665 158.627L148.763 159.132V161H139.336V159.132L142.808 158.627L154.344 130.106L153.421 127.931L156.98 126.437L170.12 158.627L173.658 159.132V161H162.737V159.132ZM150.147 147.421H161.331L155.728 133.314L150.147 147.421ZM185.633 127.865V129.733L182.337 130.238V158.363H194.378L195.674 153.441H197.476L197.278 161H174.866V159.132L178.206 158.627V130.238L174.866 129.733V127.865H185.633ZM74.9199 186.761H69.251V195.418L72.5762 195.755V197H64.2705V195.755L66.4971 195.418V176.492L64.2705 176.155V174.91H79.1826L79.5195 179.261H78.2305L77.4395 176.683H69.251V184.988H74.9199L75.3594 183.436H76.2676V188.313H75.3594L74.9199 186.761ZM96.2334 195.755L98.2549 195.418L95.9404 189.72H87.1514L84.8516 195.418L86.917 195.755V197H80.6328V195.755L82.9473 195.418L90.6377 176.404L90.0225 174.954L92.3955 173.958L101.155 195.418L103.514 195.755V197H96.2334V195.755ZM87.8398 187.947H95.2959L91.5605 178.543L87.8398 187.947ZM109.197 178.572C109.197 178.572 108.992 184.188 108.582 195.418L110.618 195.755V197H104.539V195.755L106.619 195.418L107.674 176.492L105.608 176.155V174.91H110.618L118.484 192.063L126.409 174.91H130.994V176.155L128.797 176.492C128.953 179.676 129.119 182.845 129.295 185.999C129.471 189.153 129.632 192.293 129.778 195.418L132.034 195.755V197H124.871V195.755L127.068 195.418L126.409 178.792L117.884 197L109.197 178.572ZM134.729 174.91H141.907V176.155L139.695 176.492V195.418L141.907 195.755V197H134.729V195.755L136.985 195.418V176.492L134.729 176.155V174.91ZM151.546 174.91V176.155L149.349 176.492V195.242H157.376L158.24 191.961H159.441L159.31 197H144.368V195.755L146.595 195.418V176.492L144.368 176.155V174.91H151.546ZM160.936 174.91H168.89V176.155L166.355 176.492L171.688 186.233L176.258 176.492L173.841 176.155V174.91H180.638V176.155L178.382 176.434L172.61 188.021V195.418L175.159 195.755V197H167.381V195.755L169.886 195.418V188.035L162.942 176.492L160.936 176.155V174.91Z" fill="white"/>
<path d="M218.247 274.659L233.266 291.822C231.987 291.4 230.377 290.885 228.451 290.301C222.994 288.646 215.003 286.436 204.852 284.211C184.551 279.761 155.606 275.251 121.007 275C86.4001 274.749 57.448 279.261 37.1422 283.837C26.9888 286.125 18.9956 288.43 13.5361 290.164C11.7641 290.727 10.2589 291.23 9.03341 291.653L24.7341 274.679L25.7652 273.564L24.3338 273.057L3.15948 265.558C4.6965 265.093 6.83557 264.467 9.52488 263.73C15.4905 262.095 24.1627 259.913 34.9759 257.73C56.6044 253.365 86.7863 249 121 249C155.214 249 186.023 253.365 208.279 257.731C219.406 259.914 228.392 262.097 234.594 263.733C237.368 264.464 239.584 265.087 241.186 265.551L218.684 273.051L217.257 273.527L218.247 274.659Z" fill="white" stroke="#282952" stroke-width="2"/>
<path d="M121.694 0L146.815 33L175 10.3889L163.971 66H121.694V0Z" fill="#E5A500"/>
<path d="M122.306 0L97.185 33L69 10.3889L80.0289 66H122.306V0Z" fill="#FFC700"/>
</svg>
