<svg width="512" height="512" viewBox="0 0 512 512" fill="none" xmlns="http://www.w3.org/2000/svg">
<path d="M440.02 231H71.9788C68.1234 231 65 234.118 65 237.964V454.036C65 457.883 68.1234 461 71.9788 461H440.021C443.877 461 447 457.882 447 454.036V237.965C446.999 234.117 443.875 231 440.02 231Z" fill="#F7434C"/>
<path d="M440.02 231H71.9788C68.1234 231 65 234.224 65 238.2V267H447V238.2C446.999 234.223 443.875 231 440.02 231Z" fill="#DB2E37"/>
<path d="M291.125 231H220.875C217.077 231 214 234.118 214 237.964V454.036C214 457.883 217.077 461 220.875 461H291.125C294.922 461 298 457.882 298 454.036V237.965C298 234.117 294.921 231 291.125 231Z" fill="#FFDB57"/>
<path d="M291.125 231H220.875C217.077 231 214 234.238 214 238.231V267H298V238.231C298 234.237 294.921 231 291.125 231Z" fill="#F5BA3D"/>
<path d="M424.808 103.435C418.027 85.703 407.33 68.3846 396.191 57.1065C392.103 52.9689 386.599 50.8714 380.334 51.0061C359.573 51.491 325.743 77.6356 279.783 128.713C278.636 129.987 278 131.645 278 133.363V170.062C278 173.894 281.095 177 284.915 177H391.278C414.977 177 424.759 165.431 428.79 155.725C434.168 142.787 432.753 124.216 424.808 103.435Z" fill="#FFDB57"/>
<path d="M428.763 115.075C428.572 114.357 428.27 113.675 427.868 113.055C417.541 97.0989 395.225 103.069 378.324 110.887C329.221 133.599 308.943 164.885 308.104 166.205C306.737 168.355 306.632 171.095 307.829 173.347C309.026 175.599 311.332 177 313.84 177H391.685C406.601 177 417.663 172.321 424.563 163.094C432.761 152.132 434.212 135.527 428.763 115.075Z" fill="#EF9325"/>
<path d="M232.218 128.712C186.258 77.6355 152.428 51.4911 131.667 51.0062C125.385 50.8706 119.896 52.969 115.809 57.1065C104.671 68.3837 93.9726 85.7028 87.1931 103.435C79.2478 124.215 77.8322 142.786 83.2072 155.725C87.2393 165.431 97.0202 177 120.721 177H227.085C230.905 177 234 173.893 234 170.062V133.362C234.001 131.644 233.367 129.987 232.218 128.712Z" fill="#FFDB57"/>
<path d="M203.897 166.206C203.058 164.885 182.78 133.598 133.677 110.886C116.774 103.068 94.4593 97.1004 84.1318 113.054C83.7308 113.674 83.4288 114.356 83.2376 115.074C77.7866 135.527 79.2401 152.133 87.4373 163.094C94.3367 172.321 105.399 177 120.316 177H198.161C200.669 177 202.975 175.599 204.171 173.347C205.367 171.095 205.263 168.356 203.897 166.206Z" fill="#EF9325"/>
<path d="M285.062 120H226.938C223.105 120 220 123.083 220 126.886V170.114C220 173.918 223.105 177 226.938 177H285.062C288.895 177 292 173.917 292 170.114V126.886C292 123.082 288.895 120 285.062 120Z" fill="#F5BA3D"/>
<path d="M468.084 164H43.9156C40.0951 164 37 167.056 37 170.825V238.175C37 241.945 40.0951 245 43.9156 245H468.084C471.905 245 475 241.944 475 238.175V170.825C475 167.055 471.905 164 468.084 164Z" fill="#F7434C"/>
<path d="M309 164H203V245H309V164Z" fill="#FFDB57"/>
</svg>
