<svg width="512" height="512" viewBox="0 0 512 512" fill="none" xmlns="http://www.w3.org/2000/svg">
<path d="M256 0C201.909 56.96 123.152 65.816 79.3812 65.816C59.6122 65.816 47 64.008 47 64.008C47 64.008 47 156.008 47 288.008C47 482.5 256 512 256 512C256 512 465 420 465 288C465 156 465 64 465 64C465 64 452.388 65.808 432.619 65.808C388.847 65.816 310.123 56.96 256 0Z" fill="#A0A0A0"/>
<path d="M256 512C256 512 465 482.5 465 288C465 156 465 64 465 64C465 64 452.388 65.808 432.619 65.808C388.847 65.816 310.123 56.96 256 0" fill="#828282"/>
<path d="M237.004 165V263H218.384L169.524 203.5V263H147.124V165H165.884L214.604 224.5V165H237.004ZM317.451 264.68C307.277 264.68 298.084 262.487 289.871 258.1C281.751 253.713 275.357 247.693 270.691 240.04C266.117 232.293 263.831 223.613 263.831 214C263.831 204.387 266.117 195.753 270.691 188.1C275.357 180.353 281.751 174.287 289.871 169.9C298.084 165.513 307.277 163.32 317.451 163.32C327.624 163.32 336.771 165.513 344.891 169.9C353.011 174.287 359.404 180.353 364.071 188.1C368.737 195.753 371.071 204.387 371.071 214C371.071 223.613 368.737 232.293 364.071 240.04C359.404 247.693 353.011 253.713 344.891 258.1C336.771 262.487 327.624 264.68 317.451 264.68ZM317.451 245.36C323.237 245.36 328.464 244.053 333.131 241.44C337.797 238.733 341.437 235 344.051 230.24C346.757 225.48 348.111 220.067 348.111 214C348.111 207.933 346.757 202.52 344.051 197.76C341.437 193 337.797 189.313 333.131 186.7C328.464 183.993 323.237 182.64 317.451 182.64C311.664 182.64 306.437 183.993 301.771 186.7C297.104 189.313 293.417 193 290.711 197.76C288.097 202.52 286.791 207.933 286.791 214C286.791 220.067 288.097 225.48 290.711 230.24C293.417 235 297.104 238.733 301.771 241.44C306.437 244.053 311.664 245.36 317.451 245.36ZM116.735 294H131.315V345.12H162.905V357H116.735V294ZM206.807 358.08C200.267 358.08 194.357 356.67 189.077 353.85C183.857 351.03 179.747 347.16 176.747 342.24C173.807 337.26 172.337 331.68 172.337 325.5C172.337 319.32 173.807 313.77 176.747 308.85C179.747 303.87 183.857 299.97 189.077 297.15C194.357 294.33 200.267 292.92 206.807 292.92C213.347 292.92 219.227 294.33 224.447 297.15C229.667 299.97 233.777 303.87 236.777 308.85C239.777 313.77 241.277 319.32 241.277 325.5C241.277 331.68 239.777 337.26 236.777 342.24C233.777 347.16 229.667 351.03 224.447 353.85C219.227 356.67 213.347 358.08 206.807 358.08ZM206.807 345.66C210.527 345.66 213.887 344.82 216.887 343.14C219.887 341.4 222.227 339 223.907 335.94C225.647 332.88 226.517 329.4 226.517 325.5C226.517 321.6 225.647 318.12 223.907 315.06C222.227 312 219.887 309.63 216.887 307.95C213.887 306.21 210.527 305.34 206.807 305.34C203.087 305.34 199.727 306.21 196.727 307.95C193.727 309.63 191.357 312 189.617 315.06C187.937 318.12 187.097 321.6 187.097 325.5C187.097 329.4 187.937 332.88 189.617 335.94C191.357 339 193.727 341.4 196.727 343.14C199.727 344.82 203.087 345.66 206.807 345.66ZM301.104 324.51H314.424V350.07C311.004 352.65 307.044 354.63 302.544 356.01C298.044 357.39 293.514 358.08 288.954 358.08C282.414 358.08 276.534 356.7 271.314 353.94C266.094 351.12 261.984 347.25 258.984 342.33C256.044 337.35 254.574 331.74 254.574 325.5C254.574 319.26 256.044 313.68 258.984 308.76C261.984 303.78 266.124 299.91 271.404 297.15C276.684 294.33 282.624 292.92 289.224 292.92C294.744 292.92 299.754 293.85 304.254 295.71C308.754 297.57 312.534 300.27 315.594 303.81L306.234 312.45C301.734 307.71 296.304 305.34 289.944 305.34C285.924 305.34 282.354 306.18 279.234 307.86C276.114 309.54 273.684 311.91 271.944 314.97C270.204 318.03 269.334 321.54 269.334 325.5C269.334 329.4 270.204 332.88 271.944 335.94C273.684 339 276.084 341.4 279.144 343.14C282.264 344.82 285.804 345.66 289.764 345.66C293.964 345.66 297.744 344.76 301.104 342.96V324.51ZM364.778 358.08C358.238 358.08 352.328 356.67 347.048 353.85C341.828 351.03 337.718 347.16 334.718 342.24C331.778 337.26 330.308 331.68 330.308 325.5C330.308 319.32 331.778 313.77 334.718 308.85C337.718 303.87 341.828 299.97 347.048 297.15C352.328 294.33 358.238 292.92 364.778 292.92C371.318 292.92 377.198 294.33 382.418 297.15C387.638 299.97 391.748 303.87 394.748 308.85C397.748 313.77 399.248 319.32 399.248 325.5C399.248 331.68 397.748 337.26 394.748 342.24C391.748 347.16 387.638 351.03 382.418 353.85C377.198 356.67 371.318 358.08 364.778 358.08ZM364.778 345.66C368.498 345.66 371.858 344.82 374.858 343.14C377.858 341.4 380.198 339 381.878 335.94C383.618 332.88 384.488 329.4 384.488 325.5C384.488 321.6 383.618 318.12 381.878 315.06C380.198 312 377.858 309.63 374.858 307.95C371.858 306.21 368.498 305.34 364.778 305.34C361.058 305.34 357.698 306.21 354.698 307.95C351.698 309.63 349.328 312 347.588 315.06C345.908 318.12 345.068 321.6 345.068 325.5C345.068 329.4 345.908 332.88 347.588 335.94C349.328 339 351.698 341.4 354.698 343.14C357.698 344.82 361.058 345.66 364.778 345.66Z" fill="white"/>
</svg>
