<svg width="666" height="666" viewBox="0 0 666 666" fill="none" xmlns="http://www.w3.org/2000/svg">
<path fill-rule="evenodd" clip-rule="evenodd" d="M80 0C35.8172 0 0 35.8172 0 80V586C0 630.183 35.8172 666 80 666H586C630.183 666 666 630.183 666 586V80C666 35.8172 630.183 0 586 0H80ZM535.797 192.737C541.052 206.253 544.721 221.851 545.722 244.539C546.722 267.312 546.807 274.568 546.807 332.542C546.807 390.515 546.556 397.771 545.555 420.544C544.555 443.232 540.883 458.749 535.63 472.346C524.536 501.039 501.847 523.727 473.151 534.822C459.638 540.078 444.04 543.747 421.352 544.747C398.579 545.751 391.323 545.998 333.35 545.998C275.377 545.998 268.117 545.751 245.347 544.747C222.656 543.747 207.143 540.078 193.545 534.822C179.365 529.485 166.436 521.059 155.758 510.215C144.914 499.537 136.491 486.693 131.069 472.346C125.813 458.83 122.141 443.232 121.141 420.544C120.141 397.771 119.89 390.515 119.89 332.542C119.89 274.568 120.141 267.312 121.226 244.454C122.226 221.766 125.895 206.253 131.151 192.656C136.491 178.475 144.914 165.546 155.758 154.868C166.436 143.94 179.28 135.598 193.63 130.176C207.143 124.924 222.741 121.252 245.429 120.251C268.202 119.251 275.458 119 333.431 119C391.404 119 398.661 119.251 421.518 120.336C444.207 121.336 459.723 125.005 473.317 130.261C487.497 135.598 500.427 144.024 511.104 154.868C522.033 165.546 530.375 178.391 535.797 192.737ZM499.928 458.498C502.848 450.99 506.35 439.729 507.269 418.876C508.27 396.354 508.521 389.681 508.521 332.708C508.521 275.735 508.27 268.98 507.269 246.458C506.35 225.686 502.848 214.344 499.928 206.836C496.507 197.576 491.085 189.235 483.995 182.31C477.155 175.22 468.729 169.798 459.472 166.38C451.965 163.461 440.704 159.958 419.85 159.039C397.41 158.039 390.655 157.788 333.597 157.788C276.628 157.788 269.87 158.039 247.348 159.039C226.579 159.958 215.233 163.461 207.726 166.38C198.466 169.798 190.124 175.22 183.203 182.31C176.028 189.153 170.606 197.576 167.185 206.836C164.266 214.344 160.763 225.605 159.847 246.458C158.844 268.896 158.596 275.735 158.596 332.708C158.596 389.681 158.844 396.439 159.847 418.96C160.763 439.729 164.266 451.075 167.185 458.582C170.606 467.84 176.028 476.181 183.119 483.105C189.958 490.195 198.384 495.617 207.641 499.039C215.149 501.958 226.41 505.461 247.263 506.376C269.704 507.38 276.543 507.628 333.516 507.628C390.489 507.628 397.243 507.38 419.765 506.376C440.538 505.461 451.88 501.958 459.387 499.039C477.989 491.864 492.753 477.1 499.928 458.498ZM333.431 222.851C272.874 222.851 223.741 271.981 223.741 332.542C223.741 393.102 272.874 442.232 333.431 442.232C393.992 442.232 443.122 393.102 443.122 332.542C443.122 271.981 393.992 222.851 333.431 222.851ZM333.431 403.695C294.145 403.695 262.278 371.831 262.278 332.542C262.278 293.252 294.145 261.388 333.431 261.388C372.721 261.388 404.585 293.252 404.585 332.542C404.585 371.831 372.721 403.695 333.431 403.695ZM447.458 244.122C461.603 244.122 473.069 232.656 473.069 218.514C473.069 204.37 461.603 192.907 447.458 192.907C433.317 192.907 421.851 204.37 421.851 218.514C421.851 232.656 433.317 244.122 447.458 244.122Z" fill="#F158C6"/>
</svg>
