<svg width="666" height="666" viewBox="0 0 666 666" fill="none" xmlns="http://www.w3.org/2000/svg">
<path fill-rule="evenodd" clip-rule="evenodd" d="M80 0C35.8172 0 0 35.8172 0 80V586C0 630.183 35.8172 666 80 666H586C630.183 666 666 630.183 666 586V80C666 35.8172 630.183 0 586 0H80ZM265.636 498.664L273.146 393.127L466.611 219.569C475.029 212.123 464.795 208.003 453.54 215.449L214.37 364.966L111.405 332.969C89.0066 326.033 88.5905 310.724 116.077 300.064L518.823 146.011C537.475 139.075 553.781 150.131 547.709 178.405L547.69 178.424L479.172 499.194C474.008 521.836 460.52 527.449 441.376 516.789L336.991 440.415L286.615 488.515C281.034 494.053 276.381 498.664 265.636 498.664Z" fill="#5599FF"/>
</svg>
